<?xml version="1.0" encoding="utf-8"?>
<!-- Generator: Adobe Illustrator 26.0.0, SVG Export Plug-In . SVG Version: 6.00 Build 0)  -->
<svg version="1.1" id="Layer_1" xmlns="http://www.w3.org/2000/svg" xmlns:xlink="http://www.w3.org/1999/xlink" x="0px" y="0px"
	 viewBox="0 0 1000 1000" style="enable-background:new 0 0 1000 1000;" xml:space="preserve">
<style type="text/css">
	.st0{fill:#F7966B;}
	.st1{fill:#F78958;}
</style>
<g>
	<path class="st0" d="M954.68,110.75c-28.77-51.66-83.91-86.63-147.24-86.63H192.56c-93.03,0-168.44,75.41-168.44,168.44v614.88
		c0,64.35,36.09,120.25,89.13,148.61c100.79-26.4,222.41-72.17,345.6-153.5C777.52,592.16,905.58,276.57,954.68,110.75z"/>
	<path class="st1" d="M458.85,802.55c-123.19,81.33-244.81,127.09-345.6,153.5c23.64,12.64,50.64,19.83,79.32,19.83h614.88
		c93.03,0,168.44-75.41,168.44-168.44V192.56c0-29.7-7.71-57.58-21.2-81.81C905.58,276.57,777.52,592.16,458.85,802.55z"/>
</g>
</svg>
