<?xml version="1.0" encoding="utf-8"?>
<!-- Generator: Adobe Illustrator 26.0.0, SVG Export Plug-In . SVG Version: 6.00 Build 0)  -->
<svg version="1.1" id="Layer_1" xmlns="http://www.w3.org/2000/svg" xmlns:xlink="http://www.w3.org/1999/xlink" x="0px" y="0px"
	 viewBox="0 0 1000 1000" style="enable-background:new 0 0 1000 1000;" xml:space="preserve">
<style type="text/css">
	.st0{fill:#FFFFFF;}
</style>
<path class="st0" d="M733.68,572.63c12.72,27.7,18.57,56.72,17.87,87.26c-1.44,62.11-30.55,107.48-83.17,138.73
	c-38.89,23.09-81.72,32.66-126.31,35.97c-35.98,2.67-71.64,0.02-107.11-6.12c-34.33-8.74-67.19-20.9-97.52-39.7
	c-48.79-30.24-80.32-71.86-87.52-129.91c-1.1-8.88-0.9-17.92-1.48-26.87c-0.35-5.41,1.54-7.73,7.36-7.7
	c37.78,0.18,75.56,0.32,113.33-0.07c9.44-0.1,7.49,6.1,7.78,11.19c2.72,47.7,25.72,77.66,71.15,92.33c4.7,1.52,9.48,2.94,14.32,3.87
	c34.16,6.57,68.34,8.11,101.93-2.63c30.7-9.81,51.81-29.46,55.8-62.72c3.99-33.27-7.89-60.15-36.57-78.7
	c-27.63-17.87-58.6-27.77-89.71-37.21c-49.57-15.04-98.08-32.54-142.67-59.5c-34.21-20.68-63.12-46.38-76.12-85.55
	c-23.43-70.62-7.83-147.76,69.75-197.8c37.54-24.21,78.92-36.75,122.96-40.95c53.65-5.11,106.6-2.08,156.81,19.52
	c52.6,22.64,93.38,57.95,114.23,112.94c7.09,18.71,9.62,38.31,10.02,58.27c0.12,5.97-1.96,8.26-8.03,8.22
	c-37.16-0.2-74.32-0.16-111.48-0.19c-4.93,0-8.35-0.23-8.86-7.25c-3.69-50.5-36.42-84.8-87.2-91.97
	c-26.69-3.77-53.13-2.82-78.97,5.52c-15.94,5.14-29.71,13.82-40.66,26.62c-29.14,34.05-22.19,80.39,16.13,105
	c29.71,19.07,62.91,30.39,96.28,40.85c37.52,11.76,75.08,23.21,110.13,41.47C676.05,506.31,711.34,532.21,733.68,572.63z"/>
</svg>
